<?xml version="1.0" encoding="utf-8"?>
<!-- Generator: Adobe Illustrator 19.0.0, SVG Export Plug-In . SVG Version: 6.00 Build 0)  -->
<svg version="1.1" id="Layer_1" xmlns="http://www.w3.org/2000/svg" xmlns:xlink="http://www.w3.org/1999/xlink" x="0px" y="0px"
	 viewBox="13 -13 276 276" style="enable-background:new 13 -13 276 276;" xml:space="preserve">
<style type="text/css">
	.st0{opacity:0.8;}
	.st1{fill:orange;}
	.st2{opacity:0.41;fill:orange;}
	.st3{opacity:0.4;fill:orange;}
	.st4{opacity:0.48;clip-path:url(#XMLID_2_);fill:orange;}
	.st5{opacity:0.57;fill:orange;}
	.st6{opacity:0.34;fill:orange;}
</style>
<g>
	<g class="st0">
		<path class="st1" d="M115.3,8c0,0,10,14.6,8,29.2l12.7-2.9c0,0-8.8-23.6-4-30.4C132.1,3.9,119.8,4.2,115.3,8z"/>
		<path class="st2" d="M115.3,8c0,0,10,14.6,8,29.2l12.7-2.9c0,0-8.8-23.6-4-30.4C132.1,3.9,119.8,4.2,115.3,8z"/>
		<ellipse transform="matrix(0.975 -0.2224 0.2224 0.975 2.7978 27.2932)" class="st1" cx="122.6" cy="1.2" rx="14.6" ry="7.7"/>
		<ellipse transform="matrix(0.975 -0.2223 0.2223 0.975 3.0375 26.159)" class="st3" cx="117.7" cy="-0.4" rx="5.5" ry="2.9"/>
	</g>
	<g class="st0">
		<path class="st1" d="M168.9,242.8c0,0,2.7-17.5-5.5-29.8l12.7-2.9c0,0,2.3,25,9.6,29.1C185.7,239.3,174.6,244.4,168.9,242.8z"/>
		<path class="st2" d="M168.9,242.8c0,0,2.7-17.5-5.5-29.8l12.7-2.9c0,0,2.3,25,9.6,29.1C185.7,239.3,174.6,244.4,168.9,242.8z"/>
		
			<ellipse transform="matrix(0.975 -0.2224 0.2224 0.975 -50.1841 45.8168)" class="st1" cx="178.4" cy="245.8" rx="14.6" ry="7.7"/>
		<ellipse transform="matrix(0.975 -0.2223 0.2223 0.975 -51.0779 45.079)" class="st3" cx="174.7" cy="249.4" rx="5.5" ry="2.9"/>
	</g>
	<g class="st0">
		<path class="st1" d="M35,158.7c0,0,14.6-10,29.2-8L61.3,138c0,0-23.6,8.8-30.4,4C30.9,141.9,31.2,154.2,35,158.7z"/>
		<path class="st2" d="M35,158.7c0,0,14.6-10,29.2-8L61.3,138c0,0-23.6,8.8-30.4,4C30.9,141.9,31.2,154.2,35,158.7z"/>
		
			<ellipse transform="matrix(-0.2224 -0.975 0.975 -0.2224 -113.1069 212.5628)" class="st1" cx="28.2" cy="151.4" rx="14.6" ry="7.7"/>
		
			<ellipse transform="matrix(-0.2224 -0.975 0.975 -0.2224 -119.8939 216.9824)" class="st3" cx="26.6" cy="156.3" rx="5.5" ry="2.9"/>
	</g>
	<g class="st0">
		<path class="st1" d="M269.8,105.1c0,0-17.5-2.7-29.8,5.5l-2.9-12.7c0,0,25-2.3,29.1-9.6C266.3,88.3,271.4,99.4,269.8,105.1z"/>
		<path class="st2" d="M269.8,105.1c0,0-17.5-2.7-29.8,5.5l-2.9-12.7c0,0,25-2.3,29.1-9.6C266.3,88.3,271.4,99.4,269.8,105.1z"/>
		
			<ellipse transform="matrix(-0.2224 -0.975 0.975 -0.2224 240.2121 382.8241)" class="st1" cx="272.8" cy="95.6" rx="14.6" ry="7.7"/>
		
			<ellipse transform="matrix(-0.2223 -0.975 0.975 -0.2223 240.9836 390.8859)" class="st3" cx="276.4" cy="99.3" rx="5.5" ry="2.9"/>
	</g>
	<g class="st0">
		<path class="st1" d="M93.7,230c0,0,3.3-17.4,15-26.3l-11-6.9c0,0-10.5,22.9-18.7,24.3C79,221.1,87.8,229.6,93.7,230z"/>
		<path class="st2" d="M93.7,230c0,0,3.3-17.4,15-26.3l-11-6.9c0,0-10.5,22.9-18.7,24.3C79,221.1,87.8,229.6,93.7,230z"/>
		
			<ellipse transform="matrix(-0.8466 -0.5322 0.5322 -0.8466 32.4261 468.7174)" class="st1" cx="83.8" cy="229.7" rx="14.6" ry="7.7"/>
		
			<ellipse transform="matrix(-0.8466 -0.5322 0.5322 -0.8466 34.2503 478.5032)" class="st3" cx="86.1" cy="234.3" rx="5.5" ry="2.9"/>
	</g>
	<g class="st0">
		<path class="st1" d="M221.9,26.1c0,0-14.3,10.5-17.2,24.9l-11-6.9c0,0,16.1-19.3,13.8-27.4C207.4,16.7,218.9,21,221.9,26.1z"/>
		<path class="st2" d="M221.9,26.1c0,0-14.3,10.5-17.2,24.9l-11-6.9c0,0,16.1-19.3,13.8-27.4C207.4,16.7,218.9,21,221.9,26.1z"/>
		
			<ellipse transform="matrix(-0.8466 -0.5322 0.5322 -0.8466 391.9543 147.5905)" class="st1" cx="217.2" cy="17.3" rx="14.6" ry="7.7"/>
		
			<ellipse transform="matrix(-0.8466 -0.5322 0.5322 -0.8466 401.4739 150.5028)" class="st3" cx="222.4" cy="17.4" rx="5.5" ry="2.9"/>
	</g>
	<g class="st0">
		<path class="st1" d="M257,180.3c0,0-17.4-3.3-26.3-15l-6.9,11c0,0,22.9,10.5,24.3,18.7C248.1,195,256.6,186.2,257,180.3z"/>
		<path class="st2" d="M257,180.3c0,0-17.4-3.3-26.3-15l-6.9,11c0,0,22.9,10.5,24.3,18.7C248.1,195,256.6,186.2,257,180.3z"/>
		
			<ellipse transform="matrix(-0.5322 0.8466 -0.8466 -0.5322 554.3539 74.1767)" class="st1" cx="256.7" cy="190.2" rx="14.6" ry="7.7"/>
		
			<ellipse transform="matrix(-0.5322 0.8466 -0.8466 -0.5322 559.4817 66.6988)" class="st3" cx="261.3" cy="187.9" rx="5.5" ry="2.9"/>
	</g>
	<g class="st0">
		<path class="st1" d="M53.1,52.1c0,0,10.5,14.3,24.9,17.2l-6.9,11c0,0-19.3-16.1-27.4-13.8C43.7,66.6,48,55.1,53.1,52.1z"/>
		<path class="st2" d="M53.1,52.1c0,0,10.5,14.3,24.9,17.2l-6.9,11c0,0-19.3-16.1-27.4-13.8C43.7,66.6,48,55.1,53.1,52.1z"/>
		
			<ellipse transform="matrix(-0.5322 0.8466 -0.8466 -0.5322 115.9475 49.4424)" class="st1" cx="44.3" cy="56.8" rx="14.6" ry="7.7"/>
		
			<ellipse transform="matrix(-0.5322 0.8466 -0.8466 -0.5322 111.6936 41.4342)" class="st3" cx="44.4" cy="51.6" rx="5.5" ry="2.9"/>
	</g>
	<g class="st0">
		<path class="st1" d="M217.8,211.4c0,0-12.8-8.9-15.7-21.5l-9.5,6.4c0,0,14.6,16.6,12.8,23.7C205.3,220,215.3,215.9,217.8,211.4z"
			/>
		<path class="st2" d="M217.8,211.4c0,0-12.8-8.9-15.7-21.5l-9.5,6.4c0,0,14.6,16.6,12.8,23.7C205.3,220,215.3,215.9,217.8,211.4z"
			/>
		
			<ellipse transform="matrix(-0.8316 0.5553 -0.5553 -0.8316 513.6088 282.7517)" class="st1" cx="213.9" cy="219.2" rx="12.9" ry="6.8"/>
		
			<ellipse transform="matrix(-0.8316 0.5553 -0.5553 -0.8316 521.8211 279.8607)" class="st3" cx="218.5" cy="219" rx="4.9" ry="2.6"/>
	</g>
	<g class="st0">
		<path class="st1" d="M160.6,18.1c0,0,3,15.3-3.6,26.3l11.3,2c0,0,1-22.1,7.3-25.9C175.5,20.6,165.5,16.6,160.6,18.1z"/>
		<path class="st2" d="M160.6,18.1c0,0,3,15.3-3.6,26.3l11.3,2c0,0,1-22.1,7.3-25.9C175.5,20.6,165.5,16.6,160.6,18.1z"/>
		
			<ellipse transform="matrix(0.9839 0.1785 -0.1785 0.9839 5.4172 -29.8891)" class="st1" cx="168.8" cy="15.2" rx="12.9" ry="6.8"/>
		<ellipse transform="matrix(0.9839 0.1785 -0.1785 0.9839 4.8245 -29.3286)" class="st3" cx="165.4" cy="12.1" rx="4.9" ry="2.6"/>
	</g>
	<g class="st0">
		<path class="st1" d="M91.5,31.3c0,0,2.3,10.5,9.5,15.7l-6.6,4.4c0,0-6.7-13.7-11.7-14.4C82.8,37,88,31.7,91.5,31.3z"/>
		<path class="st2" d="M91.5,31.3c0,0,2.3,10.5,9.5,15.7l-6.6,4.4c0,0-6.7-13.7-11.7-14.4C82.8,37,88,31.7,91.5,31.3z"/>
		
			<ellipse transform="matrix(-0.8316 0.5553 -0.5553 -0.8316 174.237 10.6096)" class="st1" cx="85.5" cy="31.7" rx="8.9" ry="4.7"/>
		<ellipse transform="matrix(-0.8316 0.5553 -0.5553 -0.8316 175.0935 4.657)" class="st3" cx="86.8" cy="28.9" rx="3.4" ry="1.8"/>
	</g>
	<g class="st0">
		<path class="st1" d="M61.4,185.6c0,0,10-3.9,14-11.9l5.4,5.8c0,0-12.5,8.8-12.4,13.8C68.4,193.4,62.4,189.1,61.4,185.6z"/>
		<path class="st2" d="M61.4,185.6c0,0,10-3.9,14-11.9l5.4,5.8c0,0-12.5,8.8-12.4,13.8C68.4,193.4,62.4,189.1,61.4,185.6z"/>
		<ellipse transform="matrix(0.6774 0.7356 -0.7356 0.6774 161.108 15.6122)" class="st1" cx="62.8" cy="191.5" rx="8.9" ry="4.7"/>
		
			<ellipse transform="matrix(0.6774 0.7356 -0.7356 0.6774 159.4927 17.5504)" class="st3" cx="59.7" cy="190.6" rx="3.4" ry="1.8"/>
	</g>
	<g class="st0">
		<path class="st1" d="M242.8,65.3c0,0-10.4,2.7-15.3,10.2l-4.7-6.4c0,0,13.4-7.3,13.9-12.3C236.8,56.7,242.3,61.7,242.8,65.3z"/>
		<path class="st2" d="M242.8,65.3c0,0-10.4,2.7-15.3,10.2l-4.7-6.4c0,0,13.4-7.3,13.9-12.3C236.8,56.7,242.3,61.7,242.8,65.3z"/>
		
			<ellipse transform="matrix(-0.5893 -0.8079 0.8079 -0.5893 336.9816 289.8585)" class="st1" cx="242.2" cy="59.3" rx="8.9" ry="4.7"/>
		
			<ellipse transform="matrix(-0.5893 -0.8079 0.8079 -0.5893 340.6133 294.1241)" class="st3" cx="245.1" cy="60.5" rx="3.4" ry="1.8"/>
	</g>
	<g class="st0">
		<path class="st1" d="M129.5,229.1c0,0,5.3-9.4,3.3-18.1l7.8,1.1c0,0-4.1,14.7-0.8,18.6C139.8,230.7,132.4,231.2,129.5,229.1z"/>
		<path class="st2" d="M129.5,229.1c0,0,5.3-9.4,3.3-18.1l7.8,1.1c0,0-4.1,14.7-0.8,18.6C139.8,230.7,132.4,231.2,129.5,229.1z"/>
		
			<ellipse transform="matrix(0.9904 0.1381 -0.1381 0.9904 33.4314 -16.3101)" class="st1" cx="134.3" cy="232.8" rx="8.9" ry="4.7"/>
		<ellipse transform="matrix(0.9904 0.1381 -0.1381 0.9904 33.5775 -15.9006)" class="st3" cx="131.4" cy="234" rx="3.4" ry="1.8"/>
	</g>
	<g class="st0">
		<path class="st1" d="M257.2,147.1c0,0-9.1-5.8-17.9-4.3l1.5-7.8c0,0,14.5,4.9,18.5,1.8C259.3,136.9,259.4,144.3,257.2,147.1z"/>
		<path class="st2" d="M257.2,147.1c0,0-9.1-5.8-17.9-4.3l1.5-7.8c0,0,14.5,4.9,18.5,1.8C259.3,136.9,259.4,144.3,257.2,147.1z"/>
		
			<ellipse transform="matrix(0.1909 -0.9816 0.9816 0.1909 71.3172 371.6855)" class="st1" cx="261.1" cy="142.6" rx="8.9" ry="4.7"/>
		
			<ellipse transform="matrix(0.1909 -0.9816 0.9816 0.1909 69.3037 375.1381)" class="st3" cx="262.2" cy="145.5" rx="3.4" ry="1.8"/>
	</g>
	<g class="st0">
		<path class="st1" d="M42.9,110c0,0,15.2-3.4,26.4,2.9l1.7-11.3c0,0-22.1-0.5-26.1-6.6C44.9,95,41.2,105.1,42.9,110z"/>
		<path class="st2" d="M42.9,110c0,0,15.2-3.4,26.4,2.9l1.7-11.3c0,0-22.1-0.5-26.1-6.6C44.9,95,41.2,105.1,42.9,110z"/>
		
			<ellipse transform="matrix(0.1521 -0.9884 0.9884 0.1521 -66.9801 125.546)" class="st1" cx="39.7" cy="101.8" rx="12.9" ry="6.8"/>
		
			<ellipse transform="matrix(0.1521 -0.9884 0.9884 0.1521 -72.9035 125.614)" class="st3" cx="36.8" cy="105.3" rx="4.9" ry="2.6"/>
	</g>
	<g>
		<defs>
			<circle id="XMLID_3_" cx="150" cy="123.2" r="91.3"/>
		</defs>
		<use xlink:href="#XMLID_3_"  style="overflow:visible;opacity:0.8;fill:#BF6EF9;"/>
		<clipPath id="XMLID_2_">
			<use xlink:href="#XMLID_3_"  style="overflow:visible;opacity:0.8;"/>
		</clipPath>
		<circle class="st4" cx="166.7" cy="103.5" r="82.7"/>
	</g>
	
		<ellipse transform="matrix(0.2949 -0.9555 0.9555 0.2949 22.4516 213.3123)" class="st3" cx="155.8" cy="91.4" rx="43.7" ry="54.7"/>
	<g>
		<circle class="st5" cx="155.2" cy="64.6" r="11.2"/>
		<g>
			<circle class="st5" cx="104.5" cy="152.3" r="20.8"/>
			<circle class="st5" cx="172.3" cy="186.1" r="7.8"/>
			<circle class="st5" cx="111.4" cy="70.1" r="3.4"/>
			<circle class="st5" cx="182.4" cy="122" r="16.4"/>
			<circle class="st5" cx="126.1" cy="103.9" r="10.3"/>
			<circle class="st5" cx="195.5" cy="82.7" r="10.3"/>
			<circle class="st5" cx="203.7" cy="161.3" r="6"/>
			<circle class="st5" cx="75.9" cy="119.8" r="6"/>
		</g>
	</g>
	<ellipse transform="matrix(0.2949 -0.9555 0.9555 0.2949 32.9052 206.0059)" class="st6" cx="156" cy="80.7" rx="21.7" ry="27.2"/>
</g>
</svg>
