<?xml version="1.0"?>
<svg xmlns="http://www.w3.org/2000/svg" id="Capa_1" enable-background="new 0 0 512 512" height="512px" viewBox="0 0 512 512" width="512px" class=""><g><g><g><path d="m382.318 512c5.605 0 10.149-4.544 10.149-10.149v-104.795c0-27.666-16.309-52.731-41.603-63.94l-84.862-36.373c-16.14-6.918-26.605-22.788-26.605-40.349v-7.688h-82.522v8.106c0 17.477-10.367 33.289-26.395 40.258l-83.868 36.464c-25.938 10.917-42.806 36.318-42.806 64.46v103.857c0 5.605 4.544 10.149 10.149 10.149z" fill="#fd8087" data-original="#FD8087" class="" style="fill:#FF641A" data-old_color="#fd8087"/><path d="m209.798 338.542 56.204-41.472.124-.274-.124-.053c-16.14-6.918-26.605-22.788-26.605-40.349v-7.688h-82.522v8.106c0 17.477-10.367 33.29-26.395 40.258l61.741 41.826c5.342 3.619 12.385 3.477 17.577-.354z" fill="#ffcebf" data-original="#FFCEBF" class=""/><path d="m156.875 248.707v8.106c0 4.153-.592 8.21-1.7 12.079 14.915 14.847 35.476 24.026 58.184 24.026 13.007 0 25.305-3.021 36.247-8.384-6.463-7.74-10.209-17.637-10.209-28.14v-7.688h-82.522z" fill="#ffb09e" data-original="#FFB09E" class=""/><g><g><path d="m325.824 512v-54.052h66.642v43.904c0 5.605-4.544 10.149-10.149 10.149h-56.493z" fill="#ffcebf" data-original="#FFCEBF" class=""/></g><g><path d="m3.806 501.851v-43.904h66.642v54.053h-56.494c-5.605 0-10.148-4.544-10.148-10.149z" fill="#ffcebf" data-original="#FFCEBF" class=""/></g><g><path d="m70.448 512v-71.528c0-4.204 3.408-7.611 7.611-7.611s7.611 3.408 7.611 7.611v71.528z" fill="#fe646f" data-original="#FE646F" class="active-path" style="fill:#F03800" data-old_color="#fe646f"/></g><g><path d="m310.601 512v-71.528c0-4.204 3.408-7.611 7.612-7.611s7.611 3.408 7.611 7.611v71.528z" fill="#fe646f" data-original="#FE646F" class="active-path" style="fill:#F03800" data-old_color="#fe646f"/></g></g><g fill="#fe646f"><circle cx="198.136" cy="382.605" r="7.611" data-original="#FE646F" class="active-path" style="fill:#F03800" data-old_color="#FE646F"/><circle cx="198.136" cy="428.274" r="7.611" data-original="#FE646F" class="active-path" style="fill:#F03800" data-old_color="#FE646F"/><circle cx="198.136" cy="473.943" r="7.611" data-original="#FE646F" class="active-path" style="fill:#F03800" data-old_color="#FE646F"/></g><g><path d="m280.614 151.579h-164.956v-95.277c0-31.095 25.208-56.302 56.303-56.302h52.351c31.095 0 56.302 25.207 56.302 56.302z" fill="#c59191" data-original="#C59191"/><path d="m280.614 94.489v85.506c0 45.551-36.927 82.478-82.478 82.478-45.551 0-82.478-36.927-82.478-82.478v-59.727c0-19.604 19.838-32.979 38.011-25.63l39.451 15.955c22.363 9.044 47.657 7.206 68.477-4.977z" fill="#ffcebf" data-original="#FFCEBF" class=""/></g><path d="m280.614 156.331c-2.108 9.932-8.148 28.19-25.125 41.759-7.313 5.845-15.73 10.098-25.018 12.642-4.055 1.11-6.441 5.297-5.331 9.351.926 3.382 3.992 5.603 7.336 5.603.666 0 1.342-.088 2.015-.273 11.298-3.094 21.56-8.286 30.502-15.432 5.662-4.525 10.314-9.464 14.147-14.496.954-5.02 1.474-10.194 1.474-15.491z" fill="#7a6d79" data-original="#7A6D79" class=""/><path d="m221.58 231.897h-18.471c-8.407 0-15.223-6.816-15.223-15.223 0-8.407 6.816-15.223 15.223-15.223h18.471c8.407 0 15.223 6.816 15.223 15.223 0 8.407-6.816 15.223-15.223 15.223z" fill="#685e68" data-original="#685E68" class=""/></g><g><path d="m508.194 146.469c0-54.192-44.321-98.032-98.693-97.25-52.667.758-95.493 43.95-95.826 96.621-.186 29.497 12.762 55.971 33.337 73.927 2.171 1.895 1.859 5.353-.622 6.821l-18.327 10.843c-2.963 1.753-1.719 6.295 1.723 6.294l82.988-.02c52.867-.982 95.42-44.137 95.42-97.236z" fill="#7acaa6" data-original="#7ACAA6" class=""/><path d="m438.487 53.17c23.824 17.727 39.261 46.097 39.261 78.076 0 53.1-42.554 96.254-95.418 97.237l-39.157.01-15.109 8.939c-2.963 1.753-1.719 6.295 1.723 6.294l82.988-.02c52.865-.983 95.418-44.138 95.418-97.237.001-44.145-29.41-81.417-69.706-93.299z" fill="#57be92" data-original="#57BE92" class=""/><g><g><circle cx="407.394" cy="215.265" fill="#fff" r="7.696" data-original="#FFF" class="" style="fill:#FFFFFF" data-old_color="#fff"/></g><g><g><path d="m407.394 192.231c-4.204 0-7.611-3.408-7.611-7.611v-33.836c0-4.204 3.408-7.611 7.611-7.611 6.849 0 13.223-2.74 17.945-7.715 4.721-4.971 7.123-11.492 6.767-18.359-.668-12.87-11.297-23.155-24.198-23.415-12.553-.259-23.295 8.896-25.022 21.28-.159 1.138-.239 2.303-.239 3.461 0 4.204-3.408 7.612-7.612 7.612s-7.611-3.408-7.611-7.612c0-1.859.129-3.731.385-5.564 2.793-20.018 20.128-34.816 40.406-34.397 20.842.42 38.015 17.044 39.094 37.846.575 11.078-3.306 21.601-10.929 29.63-5.843 6.155-13.252 10.19-21.374 11.741v26.94c0 4.202-3.408 7.61-7.612 7.61z" fill="#fff" data-original="#FFF" class="" style="fill:#FFFFFF" data-old_color="#fff"/></g></g></g></g></g></g> </svg>
