<?xml version="1.0" encoding="utf-8"?>
<svg xmlns="http://www.w3.org/2000/svg" style="margin: auto; background: none; display: block; shape-rendering: auto;" width="286" height="72" preserveAspectRatio="xMidYMid">
<style type="text/css">
  text {
    text-anchor: middle; font-size: 59px; opacity: 0;
  }
</style>
<g style="transform-origin:143px 36px;transform:scale(1)">
<g transform="translate(143,36)">
  <g transform="translate(0,0)"><g class="path" style="transform: scale(1); transform-origin: -115.105px -5.4808px; animation: 1.66667s linear -1s infinite normal forwards running beat-6ec27c7b-7b88-4935-ae39-e3940545fb41;"><path d="M9.74-43.66L9.74-10.15L9.74-10.15Q9.74-6.96 11.06-5.43L11.06-5.43L11.06-5.43Q12.39-3.89 14.75-3.89L14.75-3.89L14.75-3.89Q15.87-3.89 16.93-4.16L16.93-4.16L16.93-4.16Q18.00-4.43 18.82-4.78L18.82-4.78L20.12-0.47L20.12-0.47Q19.06 0 17.49 0.35L17.49 0.35L17.49 0.35Q15.93 0.71 14.04 0.71L14.04 0.71L14.04 0.71Q11.98 0.71 10.24 0.12L10.24 0.12L10.24 0.12Q8.50-0.47 7.20-1.71L7.20-1.71L7.20-1.71Q5.90-2.95 5.16-4.90L5.16-4.90L5.16-4.90Q4.43-6.84 4.43-9.62L4.43-9.62L4.43-43.66L9.74-43.66" fill="#009954" stroke="none" stroke-width="none" transform="translate(-127.3800048828125,15.994199399081145)" style="fill: rgb(0, 153, 84);"></path></g><g class="path" style="transform: scale(1); transform-origin: -90.21px 0.6542px; animation: 1.66667s linear -0.9s infinite normal forwards running beat-6ec27c7b-7b88-4935-ae39-e3940545fb41;"><path d="M47.02-15.34L47.02-15.34L47.02-15.34Q47.02-17.64 46.29-19.71L46.29-19.71L46.29-19.71Q45.55-21.77 44.22-23.31L44.22-23.31L44.22-23.31Q42.89-24.84 41.09-25.75L41.09-25.75L41.09-25.75Q39.29-26.67 37.17-26.67L37.17-26.67L37.17-26.67Q32.51-26.67 29.91-23.60L29.91-23.60L29.91-23.60Q27.32-20.53 27.32-15.46L27.32-15.46L27.32-15.46Q27.32-13.16 28.05-11.06L28.05-11.06L28.05-11.06Q28.79-8.97 30.12-7.40L30.12-7.40L30.12-7.40Q31.45-5.84 33.25-4.93L33.25-4.93L33.25-4.93Q35.05-4.01 37.17-4.01L37.17-4.01L37.17-4.01Q39.47-4.01 41.30-4.84L41.30-4.84L41.30-4.84Q43.13-5.66 44.40-7.17L44.40-7.17L44.40-7.17Q45.67-8.67 46.34-10.74L46.34-10.74L46.34-10.74Q47.02-12.80 47.02-15.34zM21.89-15.34L21.89-15.34L21.89-15.34Q21.89-19.06 23.07-22.04L23.07-22.04L23.07-22.04Q24.25-25.02 26.28-27.08L26.28-27.08L26.28-27.08Q28.32-29.15 31.12-30.27L31.12-30.27L31.12-30.27Q33.92-31.39 37.17-31.39L37.17-31.39L37.17-31.39Q40.36-31.39 43.16-30.27L43.16-30.27L43.16-30.27Q45.96-29.15 48.03-27.08L48.03-27.08L48.03-27.08Q50.09-25.02 51.27-22.07L51.27-22.07L51.27-22.07Q52.45-19.12 52.45-15.46L52.45-15.46L52.45-15.46Q52.45-11.80 51.30-8.82L51.30-8.82L51.30-8.82Q50.15-5.84 48.09-3.72L48.09-3.72L48.09-3.72Q46.02-1.59 43.22-0.44L43.22-0.44L43.22-0.44Q40.42 0.71 37.17 0.71L37.17 0.71L37.17 0.71Q33.87 0.71 31.06-0.47L31.06-0.47L31.06-0.47Q28.26-1.65 26.23-3.78L26.23-3.78L26.23-3.78Q24.19-5.90 23.04-8.85L23.04-8.85L23.04-8.85Q21.89-11.80 21.89-15.34" fill="#009954" stroke="none" stroke-width="none" transform="translate(-127.3800048828125,15.994199399081145)" style="fill: rgb(255, 136, 86);"></path></g><g class="path" style="transform: scale(1); transform-origin: -54.22px 0.6542px; animation: 1.66667s linear -0.8s infinite normal forwards running beat-6ec27c7b-7b88-4935-ae39-e3940545fb41;"><path d="M57.47-15.16L57.47-15.16L57.47-15.16Q57.47-18.59 58.53-21.56L58.53-21.56L58.53-21.56Q59.59-24.54 61.51-26.73L61.51-26.73L61.51-26.73Q63.43-28.91 66.11-30.15L66.11-30.15L66.11-30.15Q68.79-31.39 71.98-31.39L71.98-31.39L71.98-31.39Q74.64-31.39 76.79-30.47L76.79-30.47L76.79-30.47Q78.94-29.56 80.54-28.20L80.54-28.20L80.54-30.68L85.37-30.68L85.37-7.43L85.37-7.43Q85.37-5.19 86.46-4.51L86.46-4.51L86.46-4.51Q87.56-3.84 88.85-3.84L88.85-3.84L87.73 0.30L87.73 0.30Q82.07 0.30 80.89-4.31L80.89-4.31L80.89-4.31Q80.18-3.36 79.27-2.45L79.27-2.45L79.27-2.45Q78.35-1.53 77.17-0.83L77.17-0.83L77.17-0.83Q75.99-0.12 74.52 0.30L74.52 0.30L74.52 0.30Q73.04 0.71 71.27 0.71L71.27 0.71L71.27 0.71Q68.38 0.71 65.87-0.41L65.87-0.41L65.87-0.41Q63.37-1.53 61.51-3.60L61.51-3.60L61.51-3.60Q59.65-5.66 58.56-8.58L58.56-8.58L58.56-8.58Q57.47-11.51 57.47-15.16zM72.45-4.01L72.45-4.01L72.45-4.01Q74.69-4.01 76.70-5.07L76.70-5.07L76.70-5.07Q78.71-6.14 80.06-7.85L80.06-7.85L80.06-24.31L80.06-24.31Q78.47-25.43 76.55-26.11L76.55-26.11L76.55-26.11Q74.64-26.79 72.51-26.79L72.51-26.79L72.51-26.79Q70.39-26.79 68.62-25.96L68.62-25.96L68.62-25.96Q66.85-25.13 65.58-23.63L65.58-23.63L65.58-23.63Q64.31-22.13 63.60-20.00L63.60-20.00L63.60-20.00Q62.89-17.88 62.89-15.34L62.89-15.34L62.89-15.34Q62.89-12.86 63.60-10.77L63.60-10.77L63.60-10.77Q64.31-8.67 65.61-7.17L65.61-7.17L65.61-7.17Q66.91-5.66 68.65-4.84L68.65-4.84L68.65-4.84Q70.39-4.01 72.45-4.01" fill="#009954" stroke="none" stroke-width="none" transform="translate(-127.3800048828125,15.994199399081145)" style="fill: rgb(190, 231, 94);"></path></g><g class="path" style="transform: scale(1); transform-origin: -18.525px -5.4808px; animation: 1.66667s linear -0.7s infinite normal forwards running beat-6ec27c7b-7b88-4935-ae39-e3940545fb41;"><path d="M106.97 0.71L106.97 0.71L106.97 0.71Q104.14 0.71 101.63-0.41L101.63-0.41L101.63-0.41Q99.12-1.53 97.26-3.60L97.26-3.60L97.26-3.60Q95.40-5.66 94.34-8.58L94.34-8.58L94.34-8.58Q93.28-11.51 93.28-15.16L93.28-15.16L93.28-15.16Q93.28-18.64 94.37-21.62L94.37-21.62L94.37-21.62Q95.46-24.60 97.32-26.76L97.32-26.76L97.32-26.76Q99.18-28.91 101.66-30.15L101.66-30.15L101.66-30.15Q104.14-31.39 106.91-31.39L106.91-31.39L106.91-31.39Q109.98-31.39 112.19-30.15L112.19-30.15L112.19-30.15Q114.40-28.91 115.64-27.61L115.64-27.61L115.64-43.66L120.95-43.66L120.95-7.43L120.95-7.43Q120.95-5.19 122.04-4.51L122.04-4.51L122.04-4.51Q123.13-3.84 124.43-3.84L124.43-3.84L123.31 0.30L123.31 0.30Q117.71 0.30 116.47-4.19L116.47-4.19L116.47-4.19Q115.11-2.30 112.81-0.80L112.81-0.80L112.81-0.80Q110.51 0.71 106.97 0.71zM108.15-4.01L108.15-4.01L108.15-4.01Q110.33-4.01 112.31-5.04L112.31-5.04L112.31-5.04Q114.28-6.08 115.64-7.73L115.64-7.73L115.64-22.95L115.64-22.95Q114.52-24.37 112.54-25.58L112.54-25.58L112.54-25.58Q110.57-26.79 108.09-26.79L108.09-26.79L108.09-26.79Q105.96-26.79 104.22-25.90L104.22-25.90L104.22-25.90Q102.48-25.02 101.24-23.48L101.24-23.48L101.24-23.48Q100.01-21.95 99.36-19.85L99.36-19.85L99.36-19.85Q98.71-17.76 98.71-15.34L98.71-15.34L98.71-15.34Q98.71-12.86 99.42-10.80L99.42-10.80L99.42-10.80Q100.12-8.73 101.39-7.23L101.39-7.23L101.39-7.23Q102.66-5.72 104.40-4.87L104.40-4.87L104.40-4.87Q106.14-4.01 108.15-4.01" fill="#009954" stroke="none" stroke-width="none" transform="translate(-127.3800048828125,15.994199399081145)" style="fill: rgb(0, 153, 84);"></path></g><g class="path" style="transform: scale(1); transform-origin: 6.785px 0.6542px; animation: 1.66667s linear -0.6s infinite normal forwards running beat-6ec27c7b-7b88-4935-ae39-e3940545fb41;"><path d="M136.82-30.68L136.82 0L131.51 0L131.51-30.68L136.82-30.68" fill="#009954" stroke="none" stroke-width="none" transform="translate(-127.3800048828125,15.994199399081145)" style="fill: rgb(255, 136, 86);"></path></g><g class="path" style="transform: scale(1); transform-origin: 6.785px -23.6558px; animation: 1.66667s linear -0.5s infinite normal forwards running beat-6ec27c7b-7b88-4935-ae39-e3940545fb41;"><path d="M134.17-35.93L134.17-35.93L134.17-35.93Q132.63-35.93 131.54-37.02L131.54-37.02L131.54-37.02Q130.45-38.11 130.45-39.65L130.45-39.65L130.45-39.65Q130.45-41.36 131.45-42.36L131.45-42.36L131.45-42.36Q132.46-43.37 134.17-43.37L134.17-43.37L134.17-43.37Q135.70-43.37 136.79-42.27L136.79-42.27L136.79-42.27Q137.88-41.18 137.88-39.65L137.88-39.65L137.88-39.65Q137.88-37.94 136.88-36.93L136.88-36.93L136.88-36.93Q135.88-35.93 134.17-35.93" fill="#009954" stroke="none" stroke-width="none" transform="translate(-127.3800048828125,15.994199399081145)" style="fill: rgb(190, 231, 94);"></path></g><g class="path" style="transform: scale(1); transform-origin: 31.77px 0.2992px; animation: 1.66667s linear -0.4s infinite normal forwards running beat-6ec27c7b-7b88-4935-ae39-e3940545fb41;"><path d="M151.39-30.68L151.39-25.55L151.39-25.55Q153.05-28.03 155.61-29.71L155.61-29.71L155.61-29.71Q158.18-31.39 161.72-31.39L161.72-31.39L161.72-31.39Q166.91-31.39 169.48-28.26L169.48-28.26L169.48-28.26Q172.04-25.13 172.04-20.00L172.04-20.00L172.04 0L166.73 0L166.73-19.41L166.73-19.41Q166.73-22.77 165.20-24.75L165.20-24.75L165.20-24.75Q163.67-26.73 160.83-26.73L160.83-26.73L160.83-26.73Q159.48-26.73 158.18-26.23L158.18-26.23L158.18-26.23Q156.88-25.72 155.67-24.84L155.67-24.84L155.67-24.84Q154.46-23.95 153.43-22.77L153.43-22.77L153.43-22.77Q152.40-21.59 151.57-20.30L151.57-20.30L151.57 0L146.26 0L146.26-30.68L151.39-30.68" fill="#009954" stroke="none" stroke-width="none" transform="translate(-127.3800048828125,15.994199399081145)" style="fill: rgb(0, 153, 84);"></path></g><g class="path" style="transform: scale(1); transform-origin: 65.46px 7.1442px; animation: 1.66667s linear -0.3s infinite normal forwards running beat-6ec27c7b-7b88-4935-ae39-e3940545fb41;"><path d="M193.34-31.39L193.34-31.39L193.34-31.39Q196.00-31.39 198.09-30.50L198.09-30.50L198.09-30.50Q200.19-29.62 201.72-28.32L201.72-28.32L201.72-30.68L206.56-30.68L206.56-0.71L206.56-0.71Q206.56 3.13 205.56 5.84L205.56 5.84L205.56 5.84Q204.55 8.55 202.69 10.30L202.69 10.30L202.69 10.30Q200.84 12.04 198.24 12.86L198.24 12.86L198.24 12.86Q195.64 13.69 192.46 13.69L192.46 13.69L192.46 13.69Q189.69 13.69 187.15 13.04L187.15 13.04L187.15 13.04Q184.61 12.39 182.61 11.09L182.61 11.09L184.55 6.49L184.55 6.49Q185.97 7.61 187.86 8.35L187.86 8.35L187.86 8.35Q189.74 9.09 192.46 9.09L192.46 9.09L192.46 9.09Q196.65 9.09 199.04 6.90L199.04 6.90L199.04 6.90Q201.43 4.72 201.43-0.18L201.43-0.18L201.43-3.95L201.43-3.95Q200.25-2.54 198.03-1.27L198.03-1.27L198.03-1.27Q195.82 0 192.75 0L192.75 0L192.75 0Q190.16 0 187.68-1.03L187.68-1.03L187.68-1.03Q185.20-2.06 183.31-4.04L183.31-4.04L183.31-4.04Q181.43-6.02 180.27-8.88L180.27-8.88L180.27-8.88Q179.12-11.74 179.12-15.46L179.12-15.46L179.12-15.46Q179.12-18.88 180.25-21.80L180.25-21.80L180.25-21.80Q181.37-24.72 183.28-26.85L183.28-26.85L183.28-26.85Q185.20-28.97 187.80-30.18L187.80-30.18L187.80-30.18Q190.39-31.39 193.34-31.39zM193.93-4.72L193.93-4.72L193.93-4.72Q196.29-4.72 198.18-5.78L198.18-5.78L198.18-5.78Q200.07-6.84 201.25-8.26L201.25-8.26L201.25-24.31L201.25-24.31Q199.89-25.25 198.12-26.02L198.12-26.02L198.12-26.02Q196.35-26.79 193.87-26.79L193.87-26.79L193.87-26.79Q192.05-26.79 190.36-26.05L190.36-26.05L190.36-26.05Q188.68-25.31 187.38-23.90L187.38-23.90L187.38-23.90Q186.09-22.48 185.32-20.44L185.32-20.44L185.32-20.44Q184.55-18.41 184.55-15.75L184.55-15.75L184.55-15.75Q184.55-13.22 185.32-11.18L185.32-11.18L185.32-11.18Q186.09-9.15 187.38-7.70L187.38-7.70L187.38-7.70Q188.68-6.25 190.36-5.49L190.36-5.49L190.36-5.49Q192.05-4.72 193.93-4.72" fill="#009954" stroke="none" stroke-width="none" transform="translate(-127.3800048828125,15.994199399081145)" style="fill: rgb(255, 136, 86);"></path></g><g class="path" style="transform: scale(1); transform-origin: 92.455px 12.7492px; animation: 1.66667s linear -0.2s infinite normal forwards running beat-6ec27c7b-7b88-4935-ae39-e3940545fb41;"><path d="M215.88-3.25L215.88-3.25L215.88-3.25Q215.88-5.07 216.91-6.14L216.91-6.14L216.91-6.14Q217.95-7.20 219.83-7.20L219.83-7.20L219.83-7.20Q221.37-7.20 222.58-6.02L222.58-6.02L222.58-6.02Q223.79-4.84 223.79-3.25L223.79-3.25L223.79-3.25Q223.79-1.48 222.67-0.38L222.67-0.38L222.67-0.38Q221.55 0.71 219.83 0.71L219.83 0.71L219.83 0.71Q218.24 0.71 217.06-0.47L217.06-0.47L217.06-0.47Q215.88-1.65 215.88-3.25" fill="#009954" stroke="none" stroke-width="none" transform="translate(-127.3800048828125,15.994199399081145)" style="fill: rgb(190, 231, 94);"></path></g><g class="path" style="transform: scale(1); transform-origin: 110.155px 12.7492px; animation: 1.66667s linear -0.1s infinite normal forwards running beat-6ec27c7b-7b88-4935-ae39-e3940545fb41;"><path d="M233.58-3.25L233.58-3.25L233.58-3.25Q233.58-5.07 234.61-6.14L234.61-6.14L234.61-6.14Q235.65-7.20 237.53-7.20L237.53-7.20L237.53-7.20Q239.07-7.20 240.28-6.02L240.28-6.02L240.28-6.02Q241.49-4.84 241.49-3.25L241.49-3.25L241.49-3.25Q241.49-1.48 240.37-0.38L240.37-0.38L240.37-0.38Q239.25 0.71 237.53 0.71L237.53 0.71L237.53 0.71Q235.94 0.71 234.76-0.47L234.76-0.47L234.76-0.47Q233.58-1.65 233.58-3.25" fill="#009954" stroke="none" stroke-width="none" transform="translate(-127.3800048828125,15.994199399081145)" style="fill: rgb(0, 153, 84);"></path></g><g class="path" style="transform: scale(1); transform-origin: 127.855px 12.7492px; animation: 1.66667s linear 0s infinite normal forwards running beat-6ec27c7b-7b88-4935-ae39-e3940545fb41;"><path d="M251.28-3.25L251.28-3.25L251.28-3.25Q251.28-5.07 252.31-6.14L252.31-6.14L252.31-6.14Q253.35-7.20 255.23-7.20L255.23-7.20L255.23-7.20Q256.77-7.20 257.98-6.02L257.98-6.02L257.98-6.02Q259.19-4.84 259.19-3.25L259.19-3.25L259.19-3.25Q259.19-1.48 258.07-0.38L258.07-0.38L258.07-0.38Q256.94 0.71 255.23 0.71L255.23 0.71L255.23 0.71Q253.64 0.71 252.46-0.47L252.46-0.47L252.46-0.47Q251.28-1.65 251.28-3.25" fill="#009954" stroke="none" stroke-width="none" transform="translate(-127.3800048828125,15.994199399081145)" style="fill: rgb(255, 136, 86);"></path></g></g>
</g>
</g>
<style id="beat-6ec27c7b-7b88-4935-ae39-e3940545fb41" data-anikit="">@keyframes beat-6ec27c7b-7b88-4935-ae39-e3940545fb41
{
  0% {
    animation-timing-function: cubic-bezier(0.1028,0.2484,0.1372,0.849);
    transform: scale(1);
  }
  34% {
    animation-timing-function: cubic-bezier(0.7116,0.2095,0.8159,0.6876);
    transform: scale(1.2);
  }
  68% {
    animation-timing-function: cubic-bezier(0.1475,0.2888,0.294,0.883);
    transform: scale(1.0268);
  }
  84% {
    animation-timing-function: cubic-bezier(0.8176,0.2193,0.867,0.6889);
    transform: scale(1.0932);
  }
  100% {
    transform: scale(1);
  }
}</style></svg>